<svg width="51" height="50" viewBox="0 0 51 50" fill="none" xmlns="http://www.w3.org/2000/svg">
<path d="M24.2972 0.0996519C24.0881 0.158705 20.575 1.90815 16.4765 3.98978C12.3863 6.07878 7.40119 8.61068 5.40211 9.62197C3.37794 10.6554 1.59633 11.6076 1.37049 11.7848C1.09447 11.9989 0.860267 12.2941 0.651158 12.6706L0.333313 13.2316V25.0127V36.7938L0.651158 37.3548C1.16138 38.2775 0.902089 38.1151 7.15026 41.2892C10.6466 43.0682 14.9709 45.2679 16.9366 46.2718C21.3697 48.538 23.6699 49.6969 24.0295 49.8371C24.3557 49.97 24.5732 49.9995 25.3009 49.9995C26.3883 49.9995 26.1959 50.0807 30.0686 48.1025C31.6996 47.2757 34.1504 46.0282 35.5054 45.3343C38.2322 43.9466 44.6811 40.6618 47.2071 39.3847C48.0938 38.9271 49.0055 38.4177 49.2229 38.248C49.6412 37.9158 50.0677 37.2884 50.2267 36.7495C50.3689 36.2771 50.3689 13.7409 50.2267 13.2685C50.0594 12.7296 49.6328 12.1022 49.2062 11.77C48.9804 11.5929 48.0603 11.0761 47.1486 10.6185C46.2452 10.1534 44.5807 9.31194 43.4515 8.73617C38.7842 6.3519 31.2898 2.54297 29.0732 1.41358C27.7684 0.749236 26.5054 0.158705 26.2795 0.0996519C25.7609 -0.0332176 24.799 -0.0332176 24.2972 0.0996519ZM13.0889 19.8086V23.3149H13.825H14.5611L15.9496 21.7795C16.7107 20.938 18.1494 19.3657 19.1447 18.2732L20.9598 16.3023H23.1345H25.3093L24.4394 17.2398C23.9626 17.7639 22.4319 19.4322 21.0351 20.9528C19.6382 22.4734 18.3083 23.9128 18.0825 24.149L17.6726 24.5698L18.1577 25.1456C18.4254 25.4556 19.9394 27.1903 21.5286 28.9988C25.0667 33.0291 25.418 33.4425 25.5016 33.5532C25.5518 33.6271 25.0918 33.6492 23.3102 33.6492H21.0518L17.8399 29.8624L14.6364 26.083L13.8668 26.0609L13.0889 26.0387V29.8477V33.6492H11.2906H9.49228V24.9758V16.3023H11.2906H13.0889V19.8086ZM37.1365 16.4721C38.0147 16.6936 38.8261 17.1069 39.5203 17.6827C40.2815 18.3102 40.7666 18.9819 41.143 19.9046C41.3855 20.5173 41.4023 20.5985 41.4023 21.7279C41.4023 23.0861 41.3019 23.5142 40.7833 24.4591C40.2313 25.4482 39.4032 26.1864 38.3158 26.6662C37.1532 27.1829 35.9404 27.3231 32.971 27.2862L30.9887 27.2641V30.453V33.6492H29.1903H27.392V24.9758V16.295L32.0175 16.3171C36.0826 16.3393 36.6931 16.3614 37.1365 16.4721Z" fill="white"/>
<path d="M30.9887 21.7574V24.5698H33.2303C35.5723 24.5698 35.84 24.5402 36.5761 24.2081C37.6467 23.7283 38.1904 22.5177 37.9395 21.189C37.7554 20.2146 37.2368 19.5798 36.3168 19.2107L35.7982 18.9966L33.3976 18.9745L30.9887 18.9523V21.7574Z" fill="white"/>
</svg>
