<svg width="151" height="151" viewBox="0 0 151 151" fill="none" xmlns="http://www.w3.org/2000/svg">
<mask id="path-1-inside-1_549_1506" fill="white">
<path d="M75 76H37.5V113.5H75V151H0V38.5H75V76Z"/>
</mask>
<path d="M75 76V77H76V76H75ZM37.5 76V75H36.5V76H37.5ZM37.5 113.5H36.5V114.5H37.5V113.5ZM75 113.5H76V112.5H75V113.5ZM75 151V152H76V151H75ZM0 151H-1V152H0V151ZM0 38.5V37.5H-1V38.5H0ZM75 38.5H76V37.5H75V38.5ZM75 76V75H37.5V76V77H75V76ZM37.5 76H36.5V113.5H37.5H38.5V76H37.5ZM37.5 113.5V114.5H75V113.5V112.5H37.5V113.5ZM75 113.5H74V151H75H76V113.5H75ZM75 151V150H0V151V152H75V151ZM0 151H1V38.5H0H-1V151H0ZM0 38.5V39.5H75V38.5V37.5H0V38.5ZM75 38.5H74V76H75H76V38.5H75Z" fill="#C778DD" mask="url(#path-1-inside-1_549_1506)"/>
<mask id="path-3-outside-2_549_1506" maskUnits="userSpaceOnUse" x="74" y="0" width="77" height="115" fill="black">
<rect fill="white" x="74" width="77" height="115"/>
<path d="M150 113.5H75V76H112.5V38.5H75V1H150V113.5Z"/>
</mask>
<path d="M150 113.5V114.5H151V113.5H150ZM75 113.5H74V114.5H75V113.5ZM75 76V75H74V76H75ZM112.5 76V77H113.5V76H112.5ZM112.5 38.5H113.5V37.5H112.5V38.5ZM75 38.5H74V39.5H75V38.5ZM75 1V0H74V1H75ZM150 1H151V0H150V1ZM150 113.5V112.5H75V113.5V114.5H150V113.5ZM75 113.5H76V76H75H74V113.5H75ZM75 76V77H112.5V76V75H75V76ZM112.5 76H113.5V38.5H112.5H111.5V76H112.5ZM112.5 38.5V37.5H75V38.5V39.5H112.5V38.5ZM75 38.5H76V1H75H74V38.5H75ZM75 1V2H150V1V0H75V1ZM150 1H149V113.5H150H151V1H150Z" fill="#C778DD" mask="url(#path-3-outside-2_549_1506)"/>
</svg>
